<?xml version="1.0" encoding="utf-8"?>
<!-- Generator: Adobe Illustrator 21.0.0, SVG Export Plug-In . SVG Version: 6.00 Build 0)  -->
<svg version="1.1" id="Capa_1" xmlns="http://www.w3.org/2000/svg" xmlns:xlink="http://www.w3.org/1999/xlink" x="0px" y="0px"
	 viewBox="0 0 317.1 317.1" style="enable-background:new 0 0 317.1 317.1;" xml:space="preserve">
<style type="text/css">
	.st0{fill:#25AF9E;}
</style>
<path class="st0" d="M311,281.6c8.1,8.1,8.1,21.3,0,29.4c-4.1,4.1-9.4,6.1-14.7,6.1s-10.6-2-14.7-6.1l-84.1-84.1l0,0
	c5.6-4,10.9-8.5,15.9-13.5c5-5,9.5-10.3,13.5-15.9h0L311,281.6z"/>
<path class="st0" d="M248.3,104.7c5.2,31.9-1.9,65.4-21.5,92.8c-4,5.6-8.5,10.9-13.5,15.9c-5,5-10.3,9.5-15.9,13.5
	c-48.8,34.8-117,30.3-160.9-13.5C7,183.8-4.6,143,1.7,104.7c4.1-24.9,15.7-48.8,34.9-68c48.8-48.8,128-48.8,176.8,0
	C232.6,55.8,244.3,79.7,248.3,104.7z M209.8,155.4c11.4-31.8,4.3-68.6-21.1-94c-35.2-35.2-92.2-35.2-127.3,0
	c-25.4,25.4-32.5,62.3-21.1,94c4.3,12.2,11.4,23.6,21.1,33.3c35.2,35.2,92.2,35.2,127.3,0C198.4,178.9,205.4,167.5,209.8,155.4z"/>
</svg>
